<svg xmlns="http://www.w3.org/2000/svg" width="24" height="23.495" viewBox="0 0 24 23.495">
  <path id="github" d="M12.04,0A12.044,12.044,0,0,0,8.232,23.475c.6.111.821-.259.821-.584V20.843c-3.364.732-4.074-1.619-4.074-1.619a3.187,3.187,0,0,0-1.338-1.76c-1.094-.739.081-.739.081-.739A2.529,2.529,0,0,1,5.57,17.966a2.566,2.566,0,0,0,3.5,1,2.573,2.573,0,0,1,.739-1.612c-2.647-.288-5.456-1.323-5.456-5.937A4.658,4.658,0,0,1,5.6,8.185,4.333,4.333,0,0,1,5.718,5S6.731,4.673,9.03,6.233a11.416,11.416,0,0,1,6.033,0C17.363,4.673,18.376,5,18.376,5a4.325,4.325,0,0,1,.1,3.187,4.651,4.651,0,0,1,1.235,3.231c0,4.628-2.817,5.641-5.5,5.915a2.876,2.876,0,0,1,.821,2.218v3.3c0,.4.214.7.828.577A12.044,12.044,0,0,0,12.04,0Z" transform="translate(0.018)" fill="#fff" fill-rule="evenodd"/>
</svg>
