<svg id="link" xmlns="http://www.w3.org/2000/svg" width="30" height="30" viewBox="0 0 30 30">
  <path id="Trazado_1" data-name="Trazado 1" d="M0,0H30V30H0Z" fill="none"/>
  <path id="Trazado_2" data-name="Trazado 2" d="M4.272,14.606c0-2.6,1.662-4.716,3.707-4.716h4.783V7H7.979C4.678,7,2,10.408,2,14.606s2.678,7.606,5.979,7.606h4.783v-2.89H7.979C5.934,19.322,4.272,17.208,4.272,14.606Zm4.9,1.521H18.74V13.085H9.174ZM19.936,7H15.153V9.89h4.783c2.045,0,3.707,2.115,3.707,4.716s-1.662,4.716-3.707,4.716H15.153v2.89h4.783c3.3,0,5.979-3.408,5.979-7.606S23.236,7,19.936,7Z" transform="translate(1.043 0.394)" fill="#fff"/>
</svg>
